<svg height="512" viewBox="0 0 32 32" width="512" xmlns="http://www.w3.org/2000/svg"><g id="Layer_2" data-name="Layer 2"><path d="m14.567 16a7 7 0 1 0 -7-7 7.008 7.008 0 0 0 7 7zm0-12a5 5 0 1 1 -5 5 5.006 5.006 0 0 1 5-5z"/><path d="m26.414 25 2.122-2.121a1 1 0 0 0 -1.414-1.414l-2.122 2.121-2.122-2.121a1 1 0 0 0 -1.414 1.414l2.122 2.121-2.122 2.121a1 1 0 1 0 1.414 1.414l2.122-2.121 2.122 2.121a1 1 0 0 0 1.414-1.414z"/><path d="m19 28h-13.98a1.024 1.024 0 0 1 -.838-.427.9.9 0 0 1 -.141-.822 11.139 11.139 0 0 1 14.592-6.79 1 1 0 0 0 .734-1.861 13.141 13.141 0 0 0 -17.229 8.034 2.9 2.9 0 0 0 .426 2.616 3.047 3.047 0 0 0 2.456 1.25h13.98a1 1 0 0 0 0-2z"/></g></svg>