<svg width="19" height="18" viewBox="0 0 19 18" fill="none" xmlns="http://www.w3.org/2000/svg">
<path d="M9.74998 14.9999H16.5M3 14.9999H4.25591C4.62279 14.9999 4.80624 14.9999 4.97887 14.9585C5.13192 14.9217 5.27824 14.8611 5.41245 14.7789C5.56382 14.6861 5.69354 14.5564 5.95296 14.297L15.375 4.87493C15.9963 4.25361 15.9963 3.24625 15.375 2.62493C14.7537 2.00361 13.7463 2.00361 13.125 2.62493L3.70295 12.047C3.44352 12.3064 3.3138 12.4361 3.22104 12.5875C3.1388 12.7217 3.07819 12.868 3.04145 13.0211C3 13.1937 3 13.3772 3 13.744V14.9999Z" stroke="#A27169" stroke-width="1.5" stroke-linecap="round" stroke-linejoin="round"/>
</svg>
