<svg width="133" height="120" viewBox="0 0 133 120" fill="none" xmlns="http://www.w3.org/2000/svg">
<path d="M70.325 118.621C98.325 118.621 121.025 95.9208 121.025 67.8208C121.025 39.7208 98.225 17.0208 70.325 17.0208C42.325 17.0208 19.625 39.7208 19.625 67.8208C19.625 95.9208 42.325 118.621 70.325 118.621Z" fill="#F1F3F9" stroke="#D6DCE8" stroke-width="2" stroke-miterlimit="10"/>
<path d="M124.175 100.598C126.439 100.598 128.275 98.7621 128.275 96.4977C128.275 94.2333 126.439 92.3977 124.175 92.3977C121.91 92.3977 120.075 94.2333 120.075 96.4977C120.075 98.7621 121.91 100.598 124.175 100.598Z" fill="#EFF2F8"/>
<path d="M130.175 84.5976C131.721 84.5976 132.975 83.344 132.975 81.7976C132.975 80.2512 131.721 78.9976 130.175 78.9976C128.629 78.9976 127.375 80.2512 127.375 81.7976C127.375 83.344 128.629 84.5976 130.175 84.5976Z" fill="#EFF2F8"/>
<path d="M22.3249 34.4208C23.8713 34.4208 25.1249 33.1672 25.1249 31.6208C25.1249 30.0744 23.8713 28.8208 22.3249 28.8208C20.7785 28.8208 19.5249 30.0744 19.5249 31.6208C19.5249 33.1672 20.7785 34.4208 22.3249 34.4208Z" fill="#EFF2F8"/>
<path d="M5.2249 88.4208C8.09678 88.4208 10.4249 86.0926 10.4249 83.2208C10.4249 80.3489 8.09678 78.0208 5.2249 78.0208C2.35302 78.0208 0.0249023 80.3489 0.0249023 83.2208C0.0249023 86.0926 2.35302 88.4208 5.2249 88.4208Z" fill="#EFF2F8"/>
<path d="M76.6862 86.239H65.419C62.8083 86.239 60.6099 88.6473 60.6099 91.5072V97.6786C60.6099 104 65.2816 109.118 71.0526 109.118C76.8236 109.118 81.4954 104 81.4954 97.6786V91.5072C81.4954 88.4968 79.2969 86.239 76.6862 86.239Z" fill="white" stroke="#D6DCE8" stroke-width="2" stroke-miterlimit="10"/>
<path fill-rule="evenodd" clip-rule="evenodd" d="M75.6862 27.1046C86.7109 29.6547 94.9228 39.5282 94.9228 51.3273V54.4866C94.9228 81.135 114.984 98.58 114.984 98.58H24.9839C24.9839 98.58 45.1824 81.135 45.1824 54.4866V51.3273C45.1824 39.5282 53.3943 29.6547 64.419 27.1046V26.0525C64.419 22.8932 66.8923 20.4207 70.0526 20.4207C73.2129 20.4207 75.6862 22.8932 75.6862 26.0525V27.1046Z" fill="white"/>
<path d="M75.6862 27.1046H74.6862V27.8997L75.4608 28.0789L75.6862 27.1046ZM114.984 98.58V99.58H117.658L115.64 97.8254L114.984 98.58ZM24.9839 98.58L24.3302 97.8232L22.2962 99.58H24.9839V98.58ZM64.419 27.1046L64.6444 28.0789L65.419 27.8997V27.1046H64.419ZM95.9228 51.3273C95.9228 39.0524 87.3796 28.783 75.9115 26.1303L75.4608 28.0789C86.0421 30.5264 93.9228 40.0039 93.9228 51.3273H95.9228ZM95.9228 54.4866V51.3273H93.9228V54.4866H95.9228ZM114.984 98.58C115.64 97.8254 115.64 97.8256 115.64 97.8257C115.64 97.8257 115.64 97.8257 115.64 97.8256C115.64 97.8254 115.64 97.8249 115.639 97.8242C115.637 97.8227 115.634 97.8202 115.63 97.8166C115.622 97.8095 115.609 97.7981 115.592 97.7825C115.557 97.7515 115.503 97.7037 115.433 97.6394C115.293 97.5109 115.084 97.3166 114.816 97.0586C114.281 96.5425 113.512 95.7716 112.587 94.7621C110.735 92.7425 108.263 89.7722 105.791 85.9803C100.843 78.391 95.9228 67.5564 95.9228 54.4866H93.9228C93.9228 68.0652 99.0332 79.2772 104.116 87.0726C106.659 90.973 109.202 94.0295 111.112 96.1135C112.068 97.1559 112.866 97.9562 113.428 98.4982C113.709 98.7692 113.931 98.9757 114.084 99.1158C114.161 99.1858 114.22 99.2392 114.261 99.2758C114.282 99.2941 114.298 99.3081 114.309 99.3179C114.314 99.3228 114.319 99.3267 114.322 99.3295C114.323 99.3309 114.325 99.332 114.326 99.3328C114.326 99.3333 114.327 99.3337 114.327 99.3339C114.327 99.3343 114.328 99.3346 114.984 98.58ZM24.9839 99.58H114.984V97.58H24.9839V99.58ZM44.1824 54.4866C44.1824 67.5546 39.2292 78.3883 34.2472 85.9777C31.758 89.7695 29.269 92.7399 27.405 94.7596C26.4734 95.7691 25.6989 96.5401 25.16 97.0562C24.8906 97.3143 24.6802 97.5086 24.5386 97.6371C24.4678 97.7014 24.4143 97.7492 24.3791 97.7803C24.3615 97.7958 24.3486 97.8072 24.3404 97.8144C24.3363 97.818 24.3334 97.8205 24.3317 97.822C24.3308 97.8227 24.3303 97.8232 24.3301 97.8234C24.3299 97.8235 24.33 97.8234 24.3299 97.8235C24.33 97.8234 24.3302 97.8232 24.9839 98.58C25.6375 99.3368 25.6379 99.3365 25.6383 99.3361C25.6386 99.3359 25.6391 99.3355 25.6396 99.3351C25.6406 99.3342 25.6418 99.3331 25.6434 99.3317C25.6466 99.3289 25.6511 99.3251 25.6567 99.3202C25.6679 99.3104 25.6839 99.2963 25.7045 99.278C25.7458 99.2415 25.8057 99.1881 25.8828 99.1181C26.0371 98.978 26.2606 98.7715 26.5435 98.5005C27.1093 97.9586 27.9128 97.1584 28.8748 96.116C30.798 94.0321 33.3586 90.9757 35.9191 87.0752C41.0363 79.2799 46.1824 68.067 46.1824 54.4866H44.1824ZM44.1824 51.3273V54.4866H46.1824V51.3273H44.1824ZM64.1936 26.1303C52.7256 28.783 44.1824 39.0524 44.1824 51.3273H46.1824C46.1824 40.0039 54.0631 30.5264 64.6444 28.0789L64.1936 26.1303ZM65.419 27.1046V26.0525H63.419V27.1046H65.419ZM65.419 26.0525C65.419 23.4458 67.4443 21.4207 70.0526 21.4207V19.4207C66.3403 19.4207 63.419 22.3406 63.419 26.0525H65.419ZM70.0526 21.4207C72.6609 21.4207 74.6862 23.4458 74.6862 26.0525H76.6862C76.6862 22.3406 73.7649 19.4207 70.0526 19.4207V21.4207ZM74.6862 26.0525V27.1046H76.6862V26.0525H74.6862Z" fill="#D6DCE8"/>
<path d="M59.6099 65.3384C56.1748 65.3384 53.2893 63.1406 52.1901 59.9812C51.9153 59.2944 52.3275 58.6076 53.0145 58.3329C53.7015 58.0582 54.3886 58.4702 54.6634 59.1571C55.3504 61.2175 57.4115 62.7285 59.6099 62.7285C61.8084 62.7285 63.8695 61.3549 64.5565 59.1571C64.8313 58.4702 65.5183 58.0582 66.2053 58.3329C66.8924 58.6076 67.3046 59.2944 67.0298 59.9812C65.9305 63.2779 63.045 65.3384 59.6099 65.3384Z" fill="#AAB2C5"/>
<path d="M80.358 65.3384C76.9229 65.3384 74.0374 63.1406 72.9381 59.9812C72.6633 59.2944 73.0755 58.6076 73.7626 58.3329C74.4496 58.0582 75.1366 58.4702 75.4114 59.1571C76.0984 61.2175 78.1595 62.7285 80.358 62.7285C82.5564 62.7285 84.6175 61.3549 85.3045 59.1571C85.5794 58.4702 86.2664 58.0582 86.9534 58.3329C87.6404 58.6076 88.0526 59.2944 87.7778 59.9812C86.6786 63.2779 83.7931 65.3384 80.358 65.3384Z" fill="#AAB2C5"/>
<path d="M70.0524 82.1571C71.7978 82.1571 73.2127 80.7426 73.2127 78.9977C73.2127 77.2529 71.7978 75.8384 70.0524 75.8384C68.307 75.8384 66.8921 77.2529 66.8921 78.9977C66.8921 80.7426 68.307 82.1571 70.0524 82.1571Z" fill="#AAB2C5"/>
<path d="M86.9868 4.64967V0H104.957V4.64967L92.6949 19.4441H105.168V24.0937H86.3525V19.4441L98.6145 4.64967H86.9868Z" fill="#AAB2C5"/>
<path d="M101.786 39.5221V36.5632H113.413V39.5221L105.591 49.0328H113.625V51.9917H101.363V49.0328L109.185 39.5221H101.786Z" fill="#AAB2C5"/>
</svg>
