<svg xmlns="http://www.w3.org/2000/svg" xmlns:xlink="http://www.w3.org/1999/xlink" width="199.999" height="251.952" viewBox="0 0 199.999 251.952">
  <defs>
    <linearGradient id="linear-gradient" y1="0.5" x2="1" y2="0.5" gradientUnits="objectBoundingBox">
      <stop offset="0" stop-color="#586af6"/>
      <stop offset="1" stop-color="#586af6"/>
    </linearGradient>
    <linearGradient id="linear-gradient-3" y1="0.5" x2="1" y2="0.5" gradientUnits="objectBoundingBox">
      <stop offset="0" stop-color="#edae20"/>
      <stop offset="1" stop-color="#ed8420"/>
    </linearGradient>
  </defs>
  <g id="Group_653" data-name="Group 653" transform="translate(-203.206 61.051)">
    <g id="Group_94" data-name="Group 94" transform="translate(204.695 97.464)">
      <path id="Path_2147" data-name="Path 2147" d="M295.809,44.373,283.382,60.942h-1.416L269.812,44.319V72.06h-7.2V33.908H270.9l11.936,16.406,11.937-16.406H303V72.06h-7.194Z" transform="translate(-262.617 -33.908)" fill="#333"/>
      <path id="Path_2148" data-name="Path 2148" d="M309.124,33.908V55.927l9.047-10.791h7.957v.381L315.174,57.781l12.482,13.735v.49h-8.013L309.124,59.851V72.005h-6.649v-38.1Z" transform="translate(-255.98 -33.908)" fill="#333"/>
      <path id="Path_2149" data-name="Path 2149" d="M348.2,43.626h6.376V70.5h-6.268l-.327-3.924c-1.526,3.161-5.723,4.688-8.721,4.742-7.957.055-13.843-4.85-13.843-14.279,0-9.266,6.158-14.116,14.007-14.061,3.6,0,7.031,1.689,8.556,4.359ZM332.066,57.034c0,5.123,3.543,8.175,7.957,8.175,10.465,0,10.465-16.3,0-16.3C335.609,48.913,332.066,51.911,332.066,57.034Z" transform="translate(-252.16 -32.399)" fill="#333"/>
      <path id="Path_2150" data-name="Path 2150" d="M375.035,70.465V56.4c0-4.087-2.235-7.194-6.485-7.194-4.089,0-6.868,3.433-6.868,7.521V70.465h-6.594V43.54h5.941l.436,3.652c2.725-2.67,5.45-4.033,8.829-4.033,6.323,0,11.391,4.741,11.391,13.189V70.465Z" transform="translate(-247.219 -32.367)" fill="#333"/>
      <path id="Path_2151" data-name="Path 2151" d="M404.317,43.626h6.376V70.5h-6.268l-.327-3.924c-1.526,3.161-5.722,4.688-8.721,4.742-7.957.055-13.843-4.85-13.843-14.279,0-9.266,6.158-14.116,14.008-14.061,3.6,0,7.031,1.689,8.556,4.359ZM388.184,57.034c0,5.123,3.543,8.175,7.958,8.175,10.464,0,10.464-16.3,0-16.3C391.727,48.913,388.184,51.911,388.184,57.034Z" transform="translate(-242.816 -32.399)" fill="#333"/>
      <path id="Path_2152" data-name="Path 2152" d="M417.854,33.908V55.927L426.9,45.136h7.957v.381L423.9,57.781l12.48,13.735v.49h-8.012l-10.52-12.154V72.005h-6.649v-38.1Z" transform="translate(-237.875 -33.908)" fill="#333"/>
    </g>
    <g id="Group_95" data-name="Group 95" transform="translate(203.206 151.292)">
      <path id="Path_2153" data-name="Path 2153" d="M292.672,108.329a6.485,6.485,0,0,0,.734,2.2A3.832,3.832,0,0,0,294.874,112a4.828,4.828,0,0,0,2.4.531h4.3v6.323h-4.4a15.906,15.906,0,0,1-4.779-.632,9.031,9.031,0,0,1-3.314-1.8,9.064,9.064,0,0,1-3.288,1.8,15.864,15.864,0,0,1-4.806.632H273.2a15.152,15.152,0,0,1-5.564-.884,8.125,8.125,0,0,1-3.542-2.606,10.419,10.419,0,0,1-1.847-4.224,27.9,27.9,0,0,1-.531-5.742V95.785h6.779V105.4a21.319,21.319,0,0,0,.177,2.833,6.434,6.434,0,0,0,.708,2.276A3.78,3.78,0,0,0,270.845,112a4.949,4.949,0,0,0,2.453.531h7.74a4.955,4.955,0,0,0,2.453-.531,3.789,3.789,0,0,0,1.467-1.493,6.459,6.459,0,0,0,.708-2.276,21.327,21.327,0,0,0,.176-2.833V80.052h6.627v25.5A17.6,17.6,0,0,0,292.672,108.329Zm-21.4-12.495V93.256L273.7,92.6V89.664a4.528,4.528,0,0,1,1.265-3.466,5.861,5.861,0,0,1,4.1-1.189c.271,0,.666.026,1.189.076a6.99,6.99,0,0,1,1.543.329V88.9a8.115,8.115,0,0,0-1.492-.329,11.424,11.424,0,0,0-1.24-.076,2.343,2.343,0,0,0-1.189.279.949.949,0,0,0-.481.885V92.5h3.845v3.339h-9.965Z" transform="translate(-261.713 -80.052)" fill="#333"/>
      <path id="Path_2154" data-name="Path 2154" d="M308.185,107.893v6.323H294.021v-6.323Z" transform="translate(-256.333 -75.416)" fill="#333"/>
      <path id="Path_2155" data-name="Path 2155" d="M323.976,95.59V105.2a27.817,27.817,0,0,1-.531,5.742,10.216,10.216,0,0,1-1.872,4.224,8.3,8.3,0,0,1-3.566,2.606,15.164,15.164,0,0,1-5.565.884h-7.537v-6.322h7.437a4.952,4.952,0,0,0,2.453-.531,3.788,3.788,0,0,0,1.467-1.493,6.483,6.483,0,0,0,.708-2.276,21.337,21.337,0,0,0,.176-2.833V95.59Zm-6.5-7.311a3.952,3.952,0,0,1-1.19-2.908,4.038,4.038,0,0,1,1.19-2.934,3.91,3.91,0,0,1,2.908-1.214,4.144,4.144,0,0,1,4.147,4.148,3.911,3.911,0,0,1-1.213,2.908,4.038,4.038,0,0,1-2.934,1.19A3.95,3.95,0,0,1,317.477,88.279Z" transform="translate(-254.521 -79.857)" fill="#333"/>
      <path id="Path_2156" data-name="Path 2156" d="M332.72,108.222a6.435,6.435,0,0,0,.708,2.276,3.736,3.736,0,0,0,1.492,1.493,5.1,5.1,0,0,0,2.479.531h1.821v6.323h-1.974a15.145,15.145,0,0,1-5.563-.884,8.118,8.118,0,0,1-3.542-2.606,10.386,10.386,0,0,1-1.845-4.224,27.809,27.809,0,0,1-.532-5.742V80.1h6.779v25.292A21.309,21.309,0,0,0,332.72,108.222Z" transform="translate(-251.048 -80.045)" fill="#333"/>
      <path id="Path_2157" data-name="Path 2157" d="M350.206,107.893v6.323H336.041v-6.323Z" transform="translate(-249.336 -75.416)" fill="#333"/>
      <path id="Path_2158" data-name="Path 2158" d="M362.044,107.893v6.323H347.88v-6.323Z" transform="translate(-247.365 -75.416)" fill="#333"/>
      <path id="Path_2159" data-name="Path 2159" d="M373.883,107.893v6.323H359.719v-6.323Z" transform="translate(-245.394 -75.416)" fill="#333"/>
      <path id="Path_2160" data-name="Path 2160" d="M385.721,107.893v6.323H371.557v-6.323Z" transform="translate(-243.422 -75.416)" fill="#333"/>
      <path id="Path_2161" data-name="Path 2161" d="M406.525,109.316a5.091,5.091,0,0,0,.808,1.695,3.652,3.652,0,0,0,1.39,1.113,4.988,4.988,0,0,0,2.125.4h4.3v6.323h-4.4a16.4,16.4,0,0,1-4.351-.505,9.638,9.638,0,0,1-3.137-1.467q-2.427,1.923-8.145,1.973H381.357v-6.323h13.405a12.289,12.289,0,0,0,2.5-.2,2.58,2.58,0,0,0,1.417-.734,2.806,2.806,0,0,0,.632-1.466,15.481,15.481,0,0,0,.152-2.4,19.84,19.84,0,0,0-.152-2.6,4.891,4.891,0,0,0-.632-1.922,3,3,0,0,0-1.417-1.189,6.415,6.415,0,0,0-2.5-.4h-8.6l-.81-7.082,11.28-14.468h9.259L392.84,95.279h1.922a16.892,16.892,0,0,1,5.59.784,7.8,7.8,0,0,1,3.465,2.3,8.777,8.777,0,0,1,1.771,3.719,24.557,24.557,0,0,1,.556,5.034A11.63,11.63,0,0,0,406.525,109.316Z" transform="translate(-241.791 -80.052)" fill="#333"/>
      <path id="Path_2162" data-name="Path 2162" d="M414.578,98.872A8.03,8.03,0,0,1,416.5,95.71a8.143,8.143,0,0,1,3.364-1.947,17.5,17.5,0,0,1,5.211-.658,16.509,16.509,0,0,1,5.716.835,7.841,7.841,0,0,1,3.49,2.427A8.972,8.972,0,0,1,436,100.288a27.553,27.553,0,0,1,.456,5.261A26.275,26.275,0,0,1,436,110.76a8.173,8.173,0,0,1-1.721,3.718,7.7,7.7,0,0,1-3.49,2.251,21.948,21.948,0,0,1-11.053.1,8.167,8.167,0,0,1-3.414-1.973q-2.581,1.822-7.335,1.821h-1.872v-6.322h1.771a4.627,4.627,0,0,0,2.429-.556,3.851,3.851,0,0,0,1.416-1.518,7.7,7.7,0,0,0,.734-2.276,27.708,27.708,0,0,0,.328-2.833A16.691,16.691,0,0,1,414.578,98.872Zm13,11.964A2.809,2.809,0,0,0,429,109.825a3.991,3.991,0,0,0,.632-1.746,18.328,18.328,0,0,0,.152-2.529,20.065,20.065,0,0,0-.152-2.6,4.891,4.891,0,0,0-.632-1.922,3,3,0,0,0-1.417-1.189,8.022,8.022,0,0,0-5.032,0,3.175,3.175,0,0,0-1.417,1.189,4.387,4.387,0,0,0-.632,1.922,23.921,23.921,0,0,0-.126,2.6,21.851,21.851,0,0,0,.126,2.529,3.6,3.6,0,0,0,.632,1.746,2.963,2.963,0,0,0,1.417,1.011,9.821,9.821,0,0,0,5.032,0Z" transform="translate(-237.501 -77.878)" fill="#333"/>
    </g>
    <g id="Group_97" data-name="Group 97" transform="translate(240.2 -61.051)">
      <path id="Path_2163" data-name="Path 2163" d="M213.072,61.29c-.1-.461-.222-.92-.307-1.362-.255-.988-.527-1.96-.817-2.9l-24.512,5.281a27.758,27.758,0,0,1,1.465,2.742,28.392,28.392,0,0,1,1.806,5.365,2.642,2.642,0,0,1,.085.341c.051.222.085.409.119.631.018,0,.018,0,0,.016,0,.034.018.069.018.119.051.255.1.495.136.75a1.034,1.034,0,0,1,.034.238,26.722,26.722,0,0,1-.188,9.182v.034a27.542,27.542,0,0,1-4.1,10.016,2.014,2.014,0,0,1-.272.392,6.768,6.768,0,0,1-.512.7,27.22,27.22,0,0,1-16.3,10.56c-.255.05-.527.1-.783.153-.051,0-.085.017-.12.017a27.43,27.43,0,0,1-29.042-13.95c-.137-.222-.256-.461-.374-.7-.313-.6-.57-1.234-.836-1.862a28.6,28.6,0,0,1-1.48-4.73,22.872,22.872,0,0,1-.392-2.368c-.03-.231-.05-.462-.076-.694-.061-.668-.136-1.332-.146-2.013a4.342,4.342,0,0,1-.016-.461c0-.46.016-.9.034-1.363a.031.031,0,0,1,0-.05,17.641,17.641,0,0,1,.17-2.146h-.018l-.937.2-.05.017L112.132,78.51c.136.988.29,1.976.477,2.964.085.46.17.92.273,1.38,5.945,27.662,56.346,57.572,64.437,55.835C186.092,136.8,219.016,88.951,213.072,61.29Zm-3.2-9.845a.689.689,0,0,0-.068-.17v-.017a3.2,3.2,0,0,0-.239-.477c.017-.016.017-.034-.016-.051-.205-.511-.443-1-.7-1.5-.222-.477-.46-.92-.715-1.38-.119-.222-.255-.461-.376-.681s-.255-.461-.374-.681a51.41,51.41,0,0,0-23.319-21.1A37.175,37.175,0,0,1,191.1,34.7a57.492,57.492,0,0,0-31.631-13.746,53.756,53.756,0,0,0-7.273,1.022,51.309,51.309,0,0,0-38.819,37.15l2.384,1.057a25.286,25.286,0,0,0-2.571-.205,48.448,48.448,0,0,0-1.21,7.035q-.154,1.559-.2,3.117c-.051.954-.051,1.908-.035,2.879,0,.562.035,1.125.069,1.7l25.652-5.519c-.016.051-.016.085-.034.136h.018a.391.391,0,0,1,.034-.136v-.017c.1-.374.2-.731.341-1.107.1-.307.2-.612.323-.9.051-.187.12-.357.188-.545.1-.255.2-.528.323-.784.239-.561.495-1.107.768-1.652a28.437,28.437,0,0,1,2.111-3.526,27.5,27.5,0,0,1,36.281-7.818v.018h.017c.137.085.256.17.392.255a5.625,5.625,0,0,1,.681.408c.222.136.442.289.647.426.562.392,1.107.8,1.652,1.243a25.569,25.569,0,0,1,2.146,1.942l.46.46a8.868,8.868,0,0,1,.665.733,4.275,4.275,0,0,1,.46.511c.034.034.068.085.1.119l25.669-5.535C210.45,52.756,210.177,52.092,209.87,51.444Z" transform="translate(-105.05 -4.617)" fill="#586af6"/>
      <path id="Path_2164" data-name="Path 2164" d="M141.622,54.991a28.439,28.439,0,0,0-2.111,3.526c-.273.545-.528,1.091-.768,1.652-.119.255-.22.528-.323.784-.068.188-.137.358-.188.545-.119.29-.22.6-.323.9-.136.376-.238.733-.341,1.107v.018h-.018L111.9,69.044v.136l-.324.068h-.034c0-.034-.016-.085-.016-.119q-.1-.843-.154-1.687a43.037,43.037,0,0,1-.136-5.91l.835-.188Z" transform="translate(-105.14 1.05)" opacity="0.21" fill="url(#linear-gradient)"/>
      <path id="Path_2165" data-name="Path 2165" d="M199.413,45.585c.681,1.362,1.295,2.759,1.857,4.19L175.6,55.311h-.018a.308.308,0,0,0-.085-.119,4.278,4.278,0,0,0-.46-.511,8.866,8.866,0,0,0-.665-.733,26.692,26.692,0,0,0-2.606-2.4c-.545-.442-1.09-.852-1.652-1.244-.205-.136-.426-.289-.647-.426a5.631,5.631,0,0,0-.681-.408c-.136-.085-.255-.17-.392-.255l29.536-6.37c.272.46.511.9.766,1.362S199.191,45.108,199.413,45.585Z" transform="translate(-95.614 -0.973)" opacity="0.21" fill="url(#linear-gradient)"/>
      <path id="Path_2166" data-name="Path 2166" d="M230.412,44.63C225.865,42.721,206.906,44,206.906,44s-.239.034-.7.119l-.068-.323c-5.469-25.38-31.189-41.374-57.488-35.7-24.664,5.315-41.067,27.816-38.427,51.56l4.1,1.806,2.384,1.057a25.288,25.288,0,0,0-2.571-.205,9.191,9.191,0,0,0-5.554,1.38c-.034.018-.068.051-.1.069a6.841,6.841,0,0,0-1.959,2.929c0,.017-.018.034-.018.051v.034h-.018c-1.09,3.151-.46,7.307,2.845,9.317a8.144,8.144,0,0,0,2.947,1.057l.1-.017.374-.085,25.652-5.519h.017v-.017l47.54-10.22h.018l25.669-5.535L230.02,51.8a3.741,3.741,0,0,0,2.913-3.1A3.632,3.632,0,0,0,230.412,44.63ZM150.764,17.9c13.047-1.38,25.515,1.329,34.253,9.812a37.175,37.175,0,0,1,7.035,9.317,57.492,57.492,0,0,0-31.631-13.746c-5.536-.477-6.8-.255-12.98.443C142.707,24.274,140.527,18.994,150.764,17.9Z" transform="translate(-106.003 -6.949)" fill="url(#linear-gradient-3)"/>
      <ellipse id="Ellipse_13" data-name="Ellipse 13" cx="28.514" cy="3.066" rx="28.514" ry="3.066" transform="translate(42.889 136.592)" opacity="0.08"/>
      <path id="Path_2167" data-name="Path 2167" d="M188.583,71.8c0,.8-.035,1.6-.1,2.384v.035a27.778,27.778,0,0,1-27.9,24.988c-15.467,0-28-12.265-28-27.407a26.3,26.3,0,0,1,.6-5.586c.018-.1.035-.188.051-.273.034-.2.085-.408.136-.614-.034.205-.068.392-.085.6-.067.392-.117.787-.156,1.185-.036.415-.089.825-.1,1.252v.05c-.018.461-.034.9-.034,1.362a4.358,4.358,0,0,0,.016.461,25.962,25.962,0,0,0,2.93,11.667c.119.238.238.477.374.7a27.43,27.43,0,0,0,29.042,13.95c.035,0,.069-.017.12-.017.255-.051.527-.1.783-.153a27.22,27.22,0,0,0,16.3-10.56c.17-.222.358-.461.512-.7a2.016,2.016,0,0,0,.272-.392,26.239,26.239,0,0,0,4.65-14.956,25.469,25.469,0,0,0-.357-4.275,1.034,1.034,0,0,0-.034-.238c-.035-.255-.085-.511-.136-.75,0-.05-.018-.085-.018-.119.018-.016.018-.016,0-.016-.085-.443-.187-.869-.307-1.295.035.1.069.222.1.323A26.847,26.847,0,0,1,188.583,71.8Z" transform="translate(-101.579 2.397)" opacity="0.12"/>
      <path id="Path_2168" data-name="Path 2168" d="M232.54,42.726a3.736,3.736,0,0,1-2.93,3.236l-18.362,3.952-25.669,5.535h-.016L138.022,65.67v.016H138l-.068.018h-.018l-25.566,5.5-.051.017-.324.068h-.034l-.068.018a8.065,8.065,0,0,1-3.1-1.158l.1-.018,2.9-.647.46-.1,26.4-5.843,45.207-10.032,26.453-5.859,22.177-4.906Z" transform="translate(-105.542 -0.992)" opacity="0.1"/>
    </g>
  </g>
</svg>
