<svg xmlns="http://www.w3.org/2000/svg" xmlns:xlink="http://www.w3.org/1999/xlink" width="305.227" height="384.513" viewBox="0 0 305.227 384.513">
  <defs>
    <linearGradient id="linear-gradient" y1="0.5" x2="1" y2="0.5" gradientUnits="objectBoundingBox">
      <stop offset="0" stop-color="#586af6"/>
      <stop offset="1" stop-color="#586af6"/>
    </linearGradient>
    <linearGradient id="linear-gradient-3" y1="0.5" x2="1" y2="0.5" gradientUnits="objectBoundingBox">
      <stop offset="0" stop-color="#edae20"/>
      <stop offset="1" stop-color="#ed8420"/>
    </linearGradient>
  </defs>
  <g id="Group_940" data-name="Group 940" transform="translate(-203.206 61.051)">
    <g id="Group_94" data-name="Group 94" transform="translate(205.479 180.865)">
      <path id="Path_2147" data-name="Path 2147" d="M313.272,49.879,294.307,75.166h-2.161L273.6,49.8V92.133H262.617V33.908H275.26l18.216,25.038,18.217-25.038h12.558V92.133H313.272Z" transform="translate(-262.617 -33.908)" fill="#fff"/>
      <path id="Path_2148" data-name="Path 2148" d="M312.622,33.908v33.6L326.43,51.043h12.143v.582L321.855,70.341,340.9,91.3v.748H328.675L312.622,73.5V92.05H302.475V33.908Z" transform="translate(-231.517 -33.908)" fill="#fff"/>
      <path id="Path_2149" data-name="Path 2149" d="M360.185,43.97h9.731V84.977h-9.565l-.5-5.989c-2.329,4.825-8.734,7.155-13.309,7.237-12.143.084-21.126-7.4-21.126-21.792,0-14.141,9.4-21.543,21.377-21.459,5.49,0,10.73,2.578,13.058,6.653ZM335.565,64.433c0,7.819,5.407,12.476,12.143,12.476,15.971,0,15.971-24.87,0-24.87C340.971,52.038,335.565,56.614,335.565,64.433Z" transform="translate(-213.617 -26.835)" fill="#fff"/>
      <path id="Path_2150" data-name="Path 2150" d="M385.531,84.831V63.371c0-6.238-3.411-10.979-9.9-10.979-6.24,0-10.482,5.239-10.482,11.477V84.831H355.088V43.74h9.067l.666,5.574c4.159-4.075,8.317-6.154,13.475-6.154,9.649,0,17.384,7.235,17.384,20.128V84.831Z" transform="translate(-190.465 -26.689)" fill="#fff"/>
      <path id="Path_2151" data-name="Path 2151" d="M416.3,43.97h9.731V84.977h-9.565l-.5-5.989c-2.328,4.825-8.732,7.155-13.309,7.237-12.143.084-21.126-7.4-21.126-21.792,0-14.141,9.4-21.543,21.378-21.459,5.488,0,10.73,2.578,13.058,6.653ZM391.682,64.433c0,7.819,5.407,12.476,12.145,12.476,15.969,0,15.969-24.87,0-24.87C397.089,52.038,391.682,56.614,391.682,64.433Z" transform="translate(-169.83 -26.835)" fill="#fff"/>
      <path id="Path_2152" data-name="Path 2152" d="M421.353,33.908v33.6L435.16,51.043H447.3v.582L430.587,70.341,449.634,91.3v.748H437.407L421.353,73.5V92.05H411.205V33.908Z" transform="translate(-146.68 -33.908)" fill="#fff"/>
    </g>
    <g id="Group_95" data-name="Group 95" transform="translate(203.206 263.014)">
      <path id="Path_2153" data-name="Path 2153" d="M308.961,123.207a9.9,9.9,0,0,0,1.12,3.359,5.849,5.849,0,0,0,2.24,2.24,7.368,7.368,0,0,0,3.666.81h6.562v9.649h-6.717a24.276,24.276,0,0,1-7.294-.965,13.782,13.782,0,0,1-5.058-2.74,13.833,13.833,0,0,1-5.018,2.74,24.212,24.212,0,0,1-7.335.965H279.238a23.125,23.125,0,0,1-8.492-1.349,12.4,12.4,0,0,1-5.4-3.977,15.9,15.9,0,0,1-2.818-6.446,42.574,42.574,0,0,1-.81-8.762V104.062h10.345V118.73a32.53,32.53,0,0,0,.271,4.324,9.817,9.817,0,0,0,1.081,3.473,5.768,5.768,0,0,0,2.24,2.279,7.551,7.551,0,0,0,3.744.81H291.2a7.562,7.562,0,0,0,3.744-.81,5.782,5.782,0,0,0,2.24-2.279,9.858,9.858,0,0,0,1.081-3.473,32.541,32.541,0,0,0,.269-4.324V80.052h10.114v38.909A26.861,26.861,0,0,0,308.961,123.207ZM276.3,104.139V100.2l3.706-1V94.721a6.91,6.91,0,0,1,1.93-5.289q1.931-1.813,6.252-1.814c.413,0,1.016.039,1.814.116a10.669,10.669,0,0,1,2.355.5v5.327a12.379,12.379,0,0,0-2.277-.5,17.428,17.428,0,0,0-1.892-.116,3.576,3.576,0,0,0-1.814.425,1.448,1.448,0,0,0-.733,1.351v4.322h5.868v5.1H276.3Z" transform="translate(-261.713 -80.052)" fill="#edae20"/>
      <path id="Path_2154" data-name="Path 2154" d="M315.637,107.893v9.649H294.021v-9.649Z" transform="translate(-236.504 -58.329)" fill="#edae20"/>
      <path id="Path_2155" data-name="Path 2155" d="M334.01,103.149v14.668a42.452,42.452,0,0,1-.81,8.762,15.592,15.592,0,0,1-2.857,6.446A12.666,12.666,0,0,1,324.9,137a23.143,23.143,0,0,1-8.494,1.349h-11.5V128.7h11.349a7.557,7.557,0,0,0,3.744-.81,5.78,5.78,0,0,0,2.24-2.279,9.894,9.894,0,0,0,1.081-3.473,32.573,32.573,0,0,0,.269-4.324V103.149Zm-9.92-11.157a6.031,6.031,0,0,1-1.816-4.438,6.163,6.163,0,0,1,1.816-4.477,5.967,5.967,0,0,1,4.438-1.853,6.325,6.325,0,0,1,6.329,6.331,5.969,5.969,0,0,1-1.852,4.438,6.163,6.163,0,0,1-4.477,1.816A6.029,6.029,0,0,1,324.091,91.992Z" transform="translate(-228.012 -79.138)" fill="#edae20"/>
      <path id="Path_2156" data-name="Path 2156" d="M336.38,123.02a9.822,9.822,0,0,0,1.081,3.473,5.7,5.7,0,0,0,2.277,2.279,7.79,7.79,0,0,0,3.783.81H346.3v9.649h-3.012a23.114,23.114,0,0,1-8.49-1.349,12.389,12.389,0,0,1-5.4-3.977,15.849,15.849,0,0,1-2.816-6.446,42.434,42.434,0,0,1-.812-8.762V80.1h10.345v38.6A32.521,32.521,0,0,0,336.38,123.02Z" transform="translate(-211.736 -80.018)" fill="#edae20"/>
      <path id="Path_2157" data-name="Path 2157" d="M357.659,107.893v9.649H336.041v-9.649Z" transform="translate(-203.718 -58.329)" fill="#edae20"/>
      <path id="Path_2158" data-name="Path 2158" d="M369.5,107.893v9.649H347.88v-9.649Z" transform="translate(-194.48 -58.329)" fill="#edae20"/>
      <path id="Path_2159" data-name="Path 2159" d="M381.335,107.893v9.649H359.719v-9.649Z" transform="translate(-185.243 -58.329)" fill="#edae20"/>
      <path id="Path_2160" data-name="Path 2160" d="M393.173,107.893v9.649H371.557v-9.649Z" transform="translate(-176.006 -58.329)" fill="#edae20"/>
      <path id="Path_2161" data-name="Path 2161" d="M419.766,124.713A7.768,7.768,0,0,0,421,127.3a5.572,5.572,0,0,0,2.122,1.7,7.613,7.613,0,0,0,3.244.618h6.562v9.649h-6.715a25.025,25.025,0,0,1-6.64-.771,14.709,14.709,0,0,1-4.787-2.24q-3.7,2.935-12.43,3.01h-21v-9.649h20.459a18.754,18.754,0,0,0,3.821-.31,3.938,3.938,0,0,0,2.163-1.12,4.283,4.283,0,0,0,.965-2.238,23.627,23.627,0,0,0,.231-3.667,30.278,30.278,0,0,0-.231-3.975,7.464,7.464,0,0,0-.965-2.934,4.584,4.584,0,0,0-2.163-1.814,9.789,9.789,0,0,0-3.821-.618H388.692l-1.236-10.808,17.215-22.081H418.8L398.882,103.29h2.934a25.781,25.781,0,0,1,8.531,1.2A11.9,11.9,0,0,1,415.634,108a13.393,13.393,0,0,1,2.7,5.675,37.481,37.481,0,0,1,.849,7.682A17.747,17.747,0,0,0,419.766,124.713Z" transform="translate(-168.359 -80.052)" fill="#edae20"/>
      <path id="Path_2162" data-name="Path 2162" d="M418.5,101.907a12.254,12.254,0,0,1,2.932-4.826,12.427,12.427,0,0,1,5.134-2.971,26.714,26.714,0,0,1,7.953-1,25.2,25.2,0,0,1,8.723,1.275,11.966,11.966,0,0,1,5.326,3.7,13.692,13.692,0,0,1,2.626,5.984,42.043,42.043,0,0,1,.7,8.029,40.1,40.1,0,0,1-.7,7.952,12.473,12.473,0,0,1-2.626,5.674,11.75,11.75,0,0,1-5.326,3.436,33.5,33.5,0,0,1-16.868.153,12.465,12.465,0,0,1-5.211-3.01q-3.939,2.78-11.194,2.779h-2.857v-9.649h2.7a7.061,7.061,0,0,0,3.706-.849,5.878,5.878,0,0,0,2.161-2.316,11.749,11.749,0,0,0,1.12-3.473,42.23,42.23,0,0,0,.5-4.324A25.471,25.471,0,0,1,418.5,101.907Zm19.839,18.258a4.287,4.287,0,0,0,2.163-1.543,6.09,6.09,0,0,0,.965-2.665,27.97,27.97,0,0,0,.231-3.86,30.62,30.62,0,0,0-.231-3.975,7.464,7.464,0,0,0-.965-2.934,4.584,4.584,0,0,0-2.163-1.814,12.244,12.244,0,0,0-7.68,0,4.846,4.846,0,0,0-2.163,1.814,6.7,6.7,0,0,0-.965,2.934,36.506,36.506,0,0,0-.192,3.975,33.349,33.349,0,0,0,.192,3.86,5.492,5.492,0,0,0,.965,2.665,4.522,4.522,0,0,0,2.163,1.543,14.987,14.987,0,0,0,7.68,0Z" transform="translate(-148.261 -69.867)" fill="#edae20"/>
    </g>
    <g id="Group_97" data-name="Group 97" transform="translate(259.663 -61.051)">
      <path id="Path_2163" data-name="Path 2163" d="M266.391,82.512c-.155-.7-.338-1.4-.468-2.079-.39-1.508-.8-2.991-1.246-4.42l-37.409,8.059a42.373,42.373,0,0,1,2.236,4.185,43.328,43.328,0,0,1,2.756,8.187,4.028,4.028,0,0,1,.13.52c.078.338.13.625.182.963.027,0,.027,0,0,.025,0,.052.027.105.027.182.078.39.155.755.208,1.145a1.581,1.581,0,0,1,.052.363,40.781,40.781,0,0,1-.287,14.012v.052a42.034,42.034,0,0,1-6.265,15.285,3.074,3.074,0,0,1-.415.6,10.33,10.33,0,0,1-.782,1.066,41.541,41.541,0,0,1-24.877,16.117c-.39.077-.8.155-1.194.233-.078,0-.13.027-.183.027a41.863,41.863,0,0,1-44.321-21.29c-.208-.338-.39-.7-.571-1.066-.477-.919-.871-1.884-1.276-2.841a43.657,43.657,0,0,1-2.259-7.219,34.888,34.888,0,0,1-.6-3.614c-.046-.352-.077-.7-.116-1.059-.093-1.02-.208-2.033-.223-3.073a6.628,6.628,0,0,1-.025-.7c0-.7.025-1.376.052-2.079a.047.047,0,0,1,0-.077,26.925,26.925,0,0,1,.26-3.276h-.027l-1.429.312-.077.027-35.9,7.719c.208,1.508.443,3.016.728,4.524.13.7.26,1.4.417,2.106,9.072,42.215,85.992,87.863,98.34,85.212C225.216,197.748,275.464,124.727,266.391,82.512ZM261.5,67.486a1.053,1.053,0,0,0-.1-.26V67.2a4.888,4.888,0,0,0-.365-.728c.027-.025.027-.052-.025-.078-.313-.78-.677-1.533-1.066-2.286-.338-.728-.7-1.4-1.091-2.106-.182-.338-.39-.7-.573-1.04s-.39-.7-.571-1.04a78.459,78.459,0,0,0-35.587-32.208,56.734,56.734,0,0,1,10.737,14.219,87.741,87.741,0,0,0-48.274-20.979,82.038,82.038,0,0,0-11.1,1.559,78.3,78.3,0,0,0-59.244,56.7l3.639,1.613a38.589,38.589,0,0,0-3.924-.313,73.943,73.943,0,0,0-1.846,10.737q-.235,2.379-.312,4.757c-.078,1.456-.078,2.913-.053,4.394,0,.858.053,1.716.105,2.6L151,94.573c-.025.078-.025.13-.052.208h.027a.6.6,0,0,1,.052-.208v-.027c.157-.571.312-1.116.52-1.689.157-.468.312-.935.493-1.378.078-.285.183-.545.287-.831.157-.39.312-.806.493-1.2.365-.856.755-1.689,1.171-2.521a43.4,43.4,0,0,1,3.222-5.382,41.97,41.97,0,0,1,55.37-11.931v.027h.027c.208.13.39.26.6.39a8.59,8.59,0,0,1,1.04.623c.338.208.675.441.988.65.858.6,1.69,1.223,2.521,1.9a39.025,39.025,0,0,1,3.276,2.964l.7.7a13.525,13.525,0,0,1,1.015,1.118,6.524,6.524,0,0,1,.7.78c.052.052.1.13.157.182L262.779,70.5C262.389,69.487,261.973,68.475,261.5,67.486Z" transform="translate(-101.534 3.978)" fill="#fff"/>
      <path id="Path_2164" data-name="Path 2164" d="M157.633,54.991a43.4,43.4,0,0,0-3.222,5.382c-.417.831-.806,1.665-1.171,2.521-.182.39-.336.806-.493,1.2-.1.287-.208.547-.287.831-.182.443-.336.91-.493,1.378-.208.573-.363,1.118-.52,1.689v.027h-.027l-39.148,8.422v.208l-.495.1h-.052c0-.052-.025-.13-.025-.182q-.158-1.287-.235-2.574a65.679,65.679,0,0,1-.208-9.019l1.275-.287Z" transform="translate(-101.956 30.536)" opacity="0.21" fill="url(#linear-gradient)"/>
      <path id="Path_2165" data-name="Path 2165" d="M215.732,47.028c1.04,2.079,1.976,4.21,2.834,6.395L179.392,61.87h-.027a.47.47,0,0,0-.13-.182,6.53,6.53,0,0,0-.7-.78,13.54,13.54,0,0,0-1.015-1.118,40.74,40.74,0,0,0-3.977-3.666c-.831-.675-1.663-1.3-2.521-1.9-.313-.208-.65-.441-.988-.65a8.594,8.594,0,0,0-1.04-.623c-.208-.13-.39-.26-.6-.39l45.076-9.722c.415.7.78,1.376,1.17,2.079S215.394,46.3,215.732,47.028Z" transform="translate(-57.321 21.057)" opacity="0.21" fill="url(#linear-gradient)"/>
      <path id="Path_2166" data-name="Path 2166" d="M295.868,64.455C288.928,61.542,260,63.492,260,63.492s-.365.052-1.066.182l-.1-.493C250.48,24.447,211.227.038,171.091,8.693c-37.64,8.111-62.674,42.45-58.645,78.688l6.265,2.756,3.639,1.613a38.589,38.589,0,0,0-3.924-.313c-4.082-.052-6.76.885-8.476,2.106-.052.027-.1.078-.155.105a10.441,10.441,0,0,0-2.989,4.47c0,.027-.027.052-.027.078v.052h-.027c-1.663,4.808-.7,11.152,4.342,14.219a12.429,12.429,0,0,0,4.5,1.613l.157-.027.571-.13,39.148-8.422h.027v-.027l72.553-15.6h.027l39.175-8.447L295.27,75.4a5.709,5.709,0,0,0,4.445-4.732C300.1,68.353,299.143,65.806,295.868,64.455ZM174.315,23.667c19.912-2.106,38.94,2.028,52.276,14.974A56.736,56.736,0,0,1,237.327,52.86a87.741,87.741,0,0,0-48.274-20.979c-8.449-.728-10.372-.39-19.809.677C162.019,33.389,158.691,25.332,174.315,23.667Z" transform="translate(-106.003 -6.949)" fill="url(#linear-gradient-3)"/>
      <ellipse id="Ellipse_13" data-name="Ellipse 13" cx="43.516" cy="4.679" rx="43.516" ry="4.679" transform="translate(65.454 208.459)" opacity="0.08"/>
      <path id="Path_2167" data-name="Path 2167" d="M218.05,76.39c0,1.221-.053,2.444-.157,3.639v.053c-1.924,21.393-20.25,38.135-42.58,38.135-23.6,0-42.737-18.718-42.737-41.827a40.131,40.131,0,0,1,.91-8.526c.027-.157.053-.287.078-.417.052-.312.13-.623.208-.936-.052.313-.1.6-.13.91-.1.6-.178,1.2-.239,1.809-.055.634-.135,1.259-.151,1.91v.077c-.027.7-.052,1.378-.052,2.079a6.652,6.652,0,0,0,.025.7A39.621,39.621,0,0,0,137.7,91.806c.182.363.363.728.571,1.066a41.863,41.863,0,0,0,44.321,21.29c.053,0,.105-.027.183-.027.39-.078.8-.157,1.195-.233a41.541,41.541,0,0,0,24.877-16.117c.26-.338.547-.7.782-1.066a3.072,3.072,0,0,0,.415-.6,40.044,40.044,0,0,0,7.1-22.825,38.868,38.868,0,0,0-.545-6.525,1.58,1.58,0,0,0-.052-.363c-.053-.39-.13-.78-.208-1.145,0-.077-.027-.13-.027-.182.027-.025.027-.025,0-.025-.13-.677-.285-1.326-.468-1.976.053.155.105.338.157.493A40.972,40.972,0,0,1,218.05,76.39Z" transform="translate(-85.27 36.848)" opacity="0.12"/>
      <path id="Path_2168" data-name="Path 2168" d="M297.657,42.726a5.7,5.7,0,0,1-4.472,4.938L265.162,53.7l-39.175,8.447h-.025l-72.553,15.6v.025h-.027l-.1.027h-.027l-39.018,8.4-.078.027-.495.1h-.052l-.1.027a12.307,12.307,0,0,1-4.732-1.768l.157-.027,4.419-.988.7-.155,40.293-8.917,68.992-15.31,40.371-8.942,33.844-7.488Z" transform="translate(-103.841 20.966)" opacity="0.1"/>
    </g>
  </g>
</svg>
