<svg clip-rule="evenodd" fill-rule="evenodd" height="1.707in" image-rendering="optimizeQuality" shape-rendering="geometricPrecision" text-rendering="geometricPrecision" viewBox="0 0 1.70666 1.70666" width="1.707in" xmlns="http://www.w3.org/2000/svg"><g id="Layer_x0020_1"><path d="m1.39486.765413c-.00926378 0-.0168937-.0075748-.0168071-.0169409l.00138976-.076248-.0458346-.0608346c-.00701181-.00917717-.00243307-.0225276.00847244-.0259724l.0729173-.0223622.043748-.0625c.00624803-.00888976.0211102-.00888976.0272205 0l.043748.0625.0729173.0223622c.0111654.00337402.0152638.0168898.00847244.0259724l-.0458346.0608346.00124803.076248c.00023622.0113268-.0110551.0198071-.0222244.0159685l-.0720827-.0248622-.0773504.0258346zm-1.22235.806106c-.00887008 0-.0158858-.00685827-.0166693-.0152756l-.0195827-.233059c-.0879134-.0945827-.136248-.217496-.136248-.346803 0-.365669.374189-.609642.706382-.470024.0617008-.219488.260634-.37122.490693-.37122.280972 0 .509583.22861.509583.509583 0 .129307-.0483346.252217-.136248.346799l-.0195827.232917c-.00090158.0111772-.0129567.0187953-.023752.0138898l-.209028-.0984724c-.00730315-.00074016-.148677.0461693-.317992-.0250906-.0604488.213949-.257445.371201-.490472.371201-.0408346 0-.0815276-.0048622-.120972-.0144449-.0068189.00068898-.205244.1-.21611.1zm.725728-.924311c.103724.122252.141681.280961.109957.434591.0597205.0258346.123193.0390276.18889.0390276.0608307 0 .117902-.0152795.122638-.0152795.00915748 0 .177071.0815.199858.0922205l.0180551-.214862c.00027953-.00374803.00194488-.0073622.00458268-.0101378.0845827-.0888898.13111-.205413.13111-.328189 0-.262638-.21361-.476248-.476248-.476248-.216803 0-.403882.144028-.459854.351945.062811.0314567.116799.0747323.161012.126933zm-.388646-.147071c-.262638 0-.476248.21361-.476248.476244 0 .122776.0465276.239303.13111.328193.0026378.00277953.00416535.00624803.00458268.0101378l.0180551.214862.192776-.0906929c.00347244-.00166535.0075-.00208268.011248-.00111024.300622.0775315.594583-.150835.594583-.461528 0-.261689-.212917-.476106-.476106-.476106zm0 .742075c-.00444488 0-.00861024-.00180709-.0118071-.0048622-.0315276-.0313898-.0627795-.06-.0929173-.0875-.100835-.0918071-.187917-.17111-.187917-.28472 0-.0852717.0694449-.154579.154583-.154579.0691654 0 .106665.0319449.137917.085.031248-.0531929.0688898-.085.137917-.085.0852756 0 .154583.0694449.154583.154579 0 .15474-.171866.257831-.280835.37222-.00291339.00319685-.00707874.0048622-.0115236.0048622zm-.137917-.498327c-.0669449 0-.121248.0544449-.121248.121244 0 .128571.148732.228697.259307.337083.110429-.108232.259307-.208362.259307-.337083 0-.0669409-.0544449-.121244-.121248-.121244-.110335 0-.105374.103469-.137917.103469-.0323425 0-.0281496-.103469-.138201-.103469zm.84402.0215276-.0775-.0258346-.0720827.0248622c-.0109252.00380709-.0223189-.00440945-.0222244-.0159685l.00124803-.076248-.0458346-.0608346c-.00701181-.00917717-.00243307-.0225276.00847244-.0259724l.0729173-.0223622.043748-.0625c.00624803-.00888976.0211102-.00888976.0272205 0l.043748.0625.0729173.0223622c.0111654.00337402.0152638.0168898.00847244.0259724l-.0458346.0608346.00124803.076248c.00018898.00905906-.00735433.0169409-.0165157.0169409zm-.0774961-.06.0604173.0198622c-.00131496-.0786772-.00991732-.0521457.0373622-.115-.0751929-.023122-.0525551-.00668504-.0976378-.0711102-.0450945.0644449-.0225433.0480354-.0977756.0711102.0473465.0629409.0386772.0362913.0373622.115zm.236386-.0951378c.0473465.0629409.0386772.0362913.0373622.115.0744291-.025563.0464055-.025563.120835 0-.00131496-.0786772-.00991732-.0521457.0373622-.115-.0751929-.023122-.0525551-.00668504-.0976378-.0711102-.0451339.0645-.0225591.0480551-.0979213.0711102z"/></g></svg>