<svg id="Layer_1" enable-background="new 0 0 40 40" height="512" viewBox="0 0 40 40" width="512" xmlns="http://www.w3.org/2000/svg"><path d="m34.8 18.4c-.6 0-1 .4-1 1v7.8c0 3.8-3.1 6.8-6.8 6.8h-14.8c-3.8 0-6.8-3-6.8-6.8v-14.8c0-3.8 3.1-6.8 6.8-6.8h7.5c.6 0 1-.4 1-1s-.4-1-1-1h-7.5c-4.9 0-8.8 4-8.8 8.8v14.8c0 4.9 4 8.8 8.8 8.8h14.8c4.9 0 8.8-3.9 8.8-8.8v-7.8c0-.5-.4-1-1-1z"/><path d="m15.7 21.2c-.2.5.1 1.1.6 1.3h.3c.4 0 .8-.3 1-.7 2.5-6.5 8.3-11.3 15.2-12.4l-2.4 4.2c-.3.5-.1 1.1.4 1.4.1.1.3.1.5.1.4 0 .7-.2.9-.5l3.5-6.3c.3-.5.1-1.1-.4-1.4l-6.5-3.6c-.5-.3-1.1-.1-1.4.4s-.1 1.1.4 1.4l4.3 2.4c-7.5 1.3-13.7 6.5-16.4 13.7z"/></svg>