<svg width="18" height="18" viewBox="0 0 18 18" fill="none" xmlns="http://www.w3.org/2000/svg">
<g clip-path="url(#clip0_402_2373)">
<path d="M16.7553 7.23517C16.5242 7.08004 16.3155 6.89397 16.1351 6.68209C16.1485 6.38709 16.2078 6.09599 16.3109 5.8193C16.5046 5.16343 16.7459 4.34718 16.2809 3.70846C15.8125 3.06467 14.9568 3.04306 14.2694 3.02549C13.9803 3.03703 13.691 3.00594 13.4109 2.93319C13.2569 2.69161 13.1393 2.42867 13.0619 2.15281C12.8325 1.4996 12.5468 0.686594 11.7816 0.437923C11.0391 0.196605 10.3727 0.655089 9.78519 1.05827C9.54907 1.2468 9.28398 1.39582 9.00021 1.49957C8.71628 1.39593 8.45105 1.24688 8.2149 1.05827C7.62732 0.654735 6.9608 0.197697 6.21847 0.437923C5.45348 0.686594 5.16784 1.49919 4.93821 2.15255C4.86097 2.42702 4.74467 2.68898 4.59288 2.93036C4.31187 3.00532 4.02116 3.0373 3.73059 3.02522C3.04322 3.04276 2.18757 3.06441 1.7192 3.70817C1.25419 4.34723 1.49545 5.16349 1.6892 5.81942C1.79107 6.09466 1.85089 6.38366 1.86662 6.67674C1.68699 6.8916 1.47753 7.07969 1.24462 7.2352C0.69 7.65817 0 8.18474 0 8.99958C0 9.81441 0.69 10.341 1.24474 10.764C1.47578 10.9191 1.68448 11.1052 1.86491 11.3171C1.85151 11.6121 1.79222 11.9031 1.68914 12.1799C1.49542 12.8357 1.25413 13.652 1.71914 14.2907C2.18751 14.9345 3.04316 14.9561 3.73056 14.9737C4.01974 14.9621 4.30901 14.9932 4.58913 15.066C4.74313 15.3076 4.86074 15.5705 4.93813 15.8464C5.16775 16.4997 5.45339 17.3126 6.21856 17.5613C6.35412 17.6058 6.4959 17.6284 6.63858 17.6284C7.21446 17.6284 7.74032 17.2669 8.21495 16.941C8.45108 16.7524 8.71616 16.6034 8.99997 16.4996C9.2839 16.6032 9.54913 16.7523 9.78534 16.9409C10.3729 17.3444 11.0392 17.8011 11.7817 17.5612C12.5467 17.3126 12.8324 16.5 13.062 15.8466C13.1392 15.5721 13.2555 15.3102 13.4073 15.0688C13.6883 14.9938 13.979 14.9619 14.2696 14.9739C14.957 14.9564 15.8126 14.9347 16.281 14.291C16.746 13.6519 16.5048 12.8356 16.311 12.1797C16.2091 11.9045 16.1493 11.6155 16.1336 11.3224C16.3132 11.1075 16.5227 10.9195 16.7556 10.764C17.31 10.341 18 9.81441 18 8.99958C18 8.18474 17.31 7.65817 16.7553 7.23517ZM12.3428 7.65486L8.59277 11.4048C8.29999 11.6977 7.82524 11.6978 7.53237 11.405C7.53231 11.405 7.53225 11.4049 7.53219 11.4048L5.65718 9.52984C5.36059 9.24069 5.35456 8.76585 5.64372 8.46925C5.93287 8.17266 6.40771 8.16664 6.7043 8.45579C6.70885 8.46022 6.71334 8.46471 6.71776 8.46925L8.06248 9.814L11.2822 6.59425C11.5714 6.29765 12.0462 6.29166 12.3428 6.58081C12.6394 6.86996 12.6454 7.3448 12.3562 7.6414C12.3518 7.64597 12.3473 7.65043 12.3428 7.65486Z" fill="#15BC6E"/>
</g>
<defs>
<clipPath id="clip0_402_2373">
<rect width="18" height="18" fill="white"/>
</clipPath>
</defs>
</svg>
