<svg clip-rule="evenodd" fill-rule="evenodd" height="1.707in" image-rendering="optimizeQuality" shape-rendering="geometricPrecision" text-rendering="geometricPrecision" viewBox="0 0 1.70666 1.70666" width="1.707in" xmlns="http://www.w3.org/2000/svg"><g id="Layer_x0020_1"><path d="m1.28166 1.59485c-.0962087 0-.188543-.0322638-.263752-.0919606v.142657h.273197v-.050815l-.00944488.00011811zm-.97513-.157358h-.273193v.208055h.273193zm-.273193-.0333307.273193-.00000394v-.0970827c0-.0219213.0333307-.0219213.0333307 0v.338472h.64472l-.00000394-.172055c-.061878-.0605551-.105386-.139807-.121268-.228516l-.00323228-.0210787c-.0105669-.0825945.00338583-.167189.0403307-.241965l-.0795748.00000394c0 .0778465-.0391102.13639-.111165.156961-.0973346.0277874-.206055-.0312677-.206055-.150988v-.00611024h-.138335c-.183055 0-.331941.14889-.331941.331941v.0904213zm.298331-1.06889v-.145413c0-.0894449.0726378-.162083.162083-.162083h.336945c.0894409 0 .162079.0727756.162079.162083v.319858c0 .124787-.0695709.233669-.171941.289917v.148965h.0981102c.0747638-.122091.209398-.203748.362717-.203748.234445 0 .425.190689.425.424996 0 .219965-.168063.40148-.382496.422882v.0696142c.00027559.00917323-.00722441.0165315-.0163898.0165315-.43037 0-.860736 0-1.29111 0-.00916535 0-.0166654-.0075-.0166654-.0166654v-.348472c0-.20139.16389-.365138.365138-.365138h.138472v-.148961c-.102374-.056248-.171945-.165134-.171945-.289921v-.174445zm.627772-.0166654v-.128748c0-.0709724-.0577795-.128748-.128744-.128748l-.336945-.00000394c-.0709724 0-.128748.0577795-.128748.128748v.128752h.594437zm-.401138.504906c-.00723228-.00240551-.0143543-.00505906-.0213583-.00793701v.172469c0 .166091.250413.165335.250413 0l.00028347-.172524c-.0728346.0299961-.15463.0328386-.229339.00799213zm-.193299-.471571v.157776c0 .2235.238012.364917.431665.265.0968465-.0499724.162772-.148988.162772-.265v-.157776zm.916181 1.14165c-.11539-.00016535-.223268-.0626102-.279937-.161937-.0575669-.100906-.0579528-.222835-.00000394-.323748.0569646-.0992008.165004-.161941.280417-.161941.115469 0 .223614.0628386.280417.161937.057252.0998858.0582047.223909 0 .323756-.0573346.0983504-.165717.163839-.280894.161933zm-.016189-.613807c-.040748.00231496-.0792717.0130709-.113846.0305394.0108583.0188583.030374.0422638.0112087.0528583-.0194055.0107283-.0284094-.0158819-.0400669-.036126-.033122.0218307-.0615315.050248-.0833465.083378.0190906.0110512.0471929.0212913.0360512.0401142-.0114094.0192717-.0339882-.00048425-.052752-.0112874-.0174685.0346024-.0282165.0731535-.0305197.113925l.0850787-.00000394c.0219252 0 .0219213.0333346 0 .0333346h-.085063c.00233858.0407126.0130866.0792087.0305551.113756.0197402-.0113661.0418071-.0301024.0527047-.011122.0109016.0189921-.0163976.0287047-.0359685.0399764.0218071.0330787.050189.0614567.0832756.0832559.0113228-.0196654.0209567-.0468386.0399134-.0358661.0189291.0109567.00019685.0330472-.0110591.0525945.0345748.0174685.0730945.0282126.113835.0305315v-.0850709c0-.0219213.0333307-.0219213.0333307 0v.0850709c.0406969-.0023189.079185-.0130433.113728-.0304803-.0112795-.0195866-.0300236-.041685-.0110906-.0526496.0189488-.0109724.0287874.0165472.0399528.0359331.033122-.0218071.0615433-.0502047.083374-.0833189-.0195827-.0112756-.0468661-.0209803-.0359646-.0399724.0108937-.0189803.0329724-.00024016.0527008.011122.0174685-.0345512.0282165-.0730472.0305551-.11376h-.0851969c-.0219213 0-.0219213-.0333307 0-.0333307l.0852126-.00000394c-.00230315-.0407756-.0130472-.0793268-.0305197-.113925-.0187244.0107835-.0415748.0307087-.052752.0111496-.0108661-.0190197.0163307-.0286654.0360276-.0400079-.021815-.0331102-.0502087-.0615236-.0833189-.0833425-.0109213.0189685-.0208937.0472205-.0400669.0361299-.0189567-.0109685-.00013386-.0331575.0112126-.0528583-.0345827-.0174685-.0731063-.0282283-.113854-.0305433v.0852087c.00000394.0219213-.0333307.0219213-.0333307 0v-.0852087zm.114028.306732h-.028126c-.0113819.0467717-.0652638.0691299-.106319.0440197l-.100555.100425c-.0153504.0153386-.0393819-.00784646-.0236102-.0236102l.100524-.100394c-.0252598-.0410669-.0029685-.0952165.0440591-.106524v-.0594724c0-.0219213.0333307-.0219213.0333307 0v.0594724c.0259764.00624409.0464528.026752.0526457.052752.0185354-.00000394.0447165-.00453937.0447165.0166614 0 .00916535-.0075.0166693-.0166654.0166693zm-.124717.00961417c.0269409.0257874.0651339.00535827.0651339-.0262795 0-.0499173-.0756969-.049874-.0756969 0 0 .0102126.00401969.0194685.010563.0262795zm.0273543-.418079c-.215972 0-.391665.175689-.391665.391661s.175693.391665.391665.391665.391665-.175693.391665-.391665-.175693-.391661-.391665-.391661z"/></g></svg>